<svg width="900" height="1400" viewBox="0 0 900 1400" fill="none" xmlns="http://www.w3.org/2000/svg">
  <rect width="900" height="1400" fill="#070707"/>
  <rect x="76" y="72" width="748" height="1256" rx="58" fill="#111111" stroke="#F4F4F5" stroke-opacity="0.18" stroke-width="2"/>
  <rect x="178" y="150" width="544" height="1096" rx="58" fill="#050505" stroke="#F4F4F5" stroke-opacity="0.38" stroke-width="10"/>
  <rect x="218" y="230" width="464" height="836" rx="32" fill="#151515" stroke="#F4F4F5" stroke-opacity="0.16"/>
  <g opacity="0.14">
    <path d="M246 358H654" stroke="#F4F4F5"/>
    <path d="M246 478H654" stroke="#F4F4F5"/>
    <path d="M246 598H654" stroke="#F4F4F5"/>
    <path d="M246 718H654" stroke="#F4F4F5"/>
    <path d="M246 838H654" stroke="#F4F4F5"/>
    <path d="M330 294V1006" stroke="#F4F4F5"/>
    <path d="M450 294V1006" stroke="#F4F4F5"/>
    <path d="M570 294V1006" stroke="#F4F4F5"/>
  </g>
  <rect x="274" y="286" width="238" height="24" rx="12" fill="#F4F4F5" fill-opacity="0.86"/>
  <rect x="274" y="332" width="158" height="14" rx="7" fill="#F4F4F5" fill-opacity="0.34"/>
  <path d="M294 906C366 806 408 771 462 792C523 815 529 902 596 858C645 826 645 738 616 690" stroke="#F4F4F5" stroke-width="18" stroke-linecap="round" stroke-linejoin="round"/>
  <path d="M294 906C366 806 408 771 462 792C523 815 529 902 596 858C645 826 645 738 616 690" stroke="#38BDF8" stroke-width="6" stroke-linecap="round" stroke-linejoin="round"/>
  <circle cx="294" cy="906" r="24" fill="#38BDF8"/>
  <circle cx="616" cy="690" r="30" fill="#F4F4F5"/>
  <circle cx="616" cy="690" r="13" fill="#050505"/>
  <path d="M616 618L658 708H574L616 618Z" fill="#22C55E" fill-opacity="0.86"/>
  <path d="M282 1118H618" stroke="#F4F4F5" stroke-opacity="0.22" stroke-width="18" stroke-linecap="round"/>
  <text x="130" y="112" fill="#F4F4F5" font-family="Arial, sans-serif" font-size="34" font-weight="700">Campus AR</text>
  <text x="130" y="154" fill="#A3A3A3" font-family="Arial, sans-serif" font-size="20">Unity navigation prototype</text>
  <text x="274" y="1168" fill="#F4F4F5" fill-opacity="0.74" font-family="Arial, sans-serif" font-size="18" letter-spacing="6">CURRENT PROJECT</text>
</svg>
